<svg
        xmlns="http://www.w3.org/2000/svg"
        xmlns:xlink="http://www.w3.org/1999/xlink"
        width="502px" height="338px">
    <defs>
        <linearGradient id="PSgrad_0" x1="0%" x2="0%" y1="100%" y2="0%">
            <stop offset="0%" stop-color="rgb(208,84,128)" stop-opacity="1" />
            <stop offset="100%" stop-color="rgb(129,48,110)" stop-opacity="1" />
        </linearGradient>
        <filter filterUnits="userSpaceOnUse" id="Filter_0" x="260px" y="127px" width="38px" height="38px"  >
            <feOffset in="SourceAlpha" dx="0" dy="0" />
            <feGaussianBlur result="blurOut" stdDeviation="3.873" />
            <feFlood flood-color="rgb(0, 0, 0)" result="floodOut" />
            <feComposite operator="atop" in="floodOut" in2="blurOut" />
            <feComponentTransfer><feFuncA type="linear" slope="0.45"/></feComponentTransfer>
            <feMerge>
                <feMergeNode/>
                <feMergeNode in="SourceGraphic"/>
            </feMerge>
        </filter>

    </defs>
    <path fill-rule="evenodd"  fill="rgb(28, 30, 38)"
          d="M500.664,268.911 C500.538,269.069 500.415,269.204 500.296,269.316 C501.024,269.722 501.388,270.247 501.388,270.891 C501.388,271.472 501.159,271.965 500.700,272.371 C500.242,272.777 499.684,272.980 499.026,272.980 C498.382,272.980 497.815,272.783 497.325,272.387 C496.835,271.992 496.590,271.465 496.590,270.807 C496.590,270.513 496.642,270.234 496.747,269.972 C496.852,269.709 496.985,269.491 497.146,269.316 C497.307,269.141 497.445,269.008 497.561,268.917 C497.676,268.826 497.787,268.749 497.892,268.686 C497.262,268.301 496.947,267.804 496.947,267.195 C496.947,266.684 497.137,266.253 497.519,265.903 C497.900,265.553 498.431,265.378 499.110,265.378 C499.782,265.378 500.314,265.550 500.706,265.893 C501.098,266.236 501.294,266.680 501.294,267.226 C501.294,267.541 501.220,267.861 501.073,268.187 C500.926,268.512 500.790,268.754 500.664,268.911 ZM497.592,269.484 C497.435,269.638 497.307,269.829 497.209,270.056 C497.111,270.284 497.062,270.523 497.062,270.775 C497.062,271.293 497.258,271.717 497.650,272.046 C498.042,272.375 498.494,272.539 499.005,272.539 C499.502,272.539 499.944,272.384 500.333,272.072 C500.721,271.761 500.916,271.377 500.916,270.922 C500.916,270.705 500.867,270.509 500.769,270.334 C500.671,270.159 500.520,270.005 500.317,269.872 C500.114,269.739 499.923,269.629 499.745,269.541 C499.566,269.454 499.325,269.347 499.020,269.221 C498.716,269.095 498.483,268.994 498.322,268.917 C498.224,268.966 498.117,269.034 498.002,269.121 C497.886,269.209 497.750,269.330 497.592,269.484 ZM500.349,266.208 C500.034,265.949 499.621,265.819 499.110,265.819 C498.592,265.819 498.180,265.949 497.876,266.208 C497.571,266.467 497.419,266.789 497.419,267.174 C497.419,267.384 497.463,267.571 497.550,267.735 C497.638,267.900 497.781,268.050 497.981,268.187 C498.180,268.323 498.357,268.432 498.511,268.512 C498.665,268.593 498.898,268.698 499.209,268.827 C499.521,268.957 499.743,269.053 499.876,269.116 C500.506,268.521 500.821,267.902 500.821,267.258 C500.821,266.817 500.664,266.467 500.349,266.208 ZM491.791,272.434 L493.461,272.434 L493.461,266.449 L493.471,266.082 L493.450,266.082 C493.401,266.173 493.272,266.323 493.062,266.533 L492.190,267.405 L491.875,267.100 L493.461,265.504 L493.912,265.504 L493.912,272.434 L495.540,272.434 L495.540,272.854 L491.791,272.854 L491.791,272.434 ZM487.969,272.980 C486.317,272.980 485.491,271.713 485.491,269.179 C485.491,266.645 486.317,265.378 487.969,265.378 C489.621,265.378 490.447,266.645 490.447,269.179 C490.447,271.713 489.621,272.980 487.969,272.980 ZM489.880,270.513 C489.943,270.128 489.975,269.683 489.975,269.179 C489.975,266.939 489.306,265.819 487.969,265.819 C486.632,265.819 485.964,266.939 485.964,269.179 C485.964,269.683 485.995,270.128 486.058,270.513 C486.121,270.898 486.226,271.248 486.373,271.563 C486.520,271.878 486.728,272.119 486.998,272.287 C487.267,272.455 487.591,272.539 487.969,272.539 C488.347,272.539 488.671,272.455 488.940,272.287 C489.210,272.119 489.418,271.878 489.565,271.563 C489.712,271.248 489.817,270.898 489.880,270.513 ZM479.569,272.466 C479.569,272.123 479.641,271.803 479.785,271.505 C479.928,271.208 480.115,270.950 480.346,270.733 C480.577,270.516 480.831,270.308 481.108,270.108 C481.384,269.909 481.662,269.713 481.942,269.520 C482.222,269.328 482.478,269.132 482.709,268.932 C482.940,268.733 483.127,268.502 483.271,268.239 C483.414,267.977 483.486,267.695 483.486,267.394 C483.486,266.939 483.330,266.563 483.019,266.265 C482.707,265.968 482.292,265.819 481.774,265.819 C481.417,265.819 481.080,265.916 480.761,266.108 C480.442,266.301 480.185,266.554 479.989,266.869 L479.653,266.638 C479.863,266.267 480.161,265.965 480.546,265.730 C480.931,265.496 481.344,265.378 481.785,265.378 C482.471,265.378 483.004,265.574 483.386,265.966 C483.768,266.358 483.958,266.834 483.958,267.394 C483.958,267.786 483.862,268.150 483.670,268.486 C483.477,268.822 483.235,269.102 482.945,269.326 C482.655,269.550 482.341,269.783 482.005,270.024 C481.669,270.266 481.356,270.492 481.066,270.702 C480.775,270.912 480.534,271.167 480.341,271.468 C480.148,271.769 480.052,272.091 480.052,272.434 L484.074,272.434 L484.074,272.854 L479.601,272.854 C479.580,272.714 479.569,272.585 479.569,272.466 Z"/>
    <path fill-rule="evenodd"  fill="rgb(28, 30, 38)"
          d="M435.337,272.854 L434.865,272.854 L437.931,266.607 L438.319,265.924 L438.319,265.903 C438.179,265.917 437.987,265.924 437.742,265.924 L434.172,265.924 L434.172,265.504 L438.823,265.504 L438.823,265.819 L435.337,272.854 ZM429.541,272.434 L431.211,272.434 L431.211,266.449 L431.221,266.082 L431.200,266.082 C431.151,266.173 431.022,266.323 430.812,266.533 L429.940,267.405 L429.625,267.100 L431.211,265.504 L431.662,265.504 L431.662,272.434 L433.290,272.434 L433.290,272.854 L429.541,272.854 L429.541,272.434 ZM425.719,272.980 C424.067,272.980 423.241,271.713 423.241,269.179 C423.241,266.645 424.067,265.378 425.719,265.378 C427.371,265.378 428.197,266.645 428.197,269.179 C428.197,271.713 427.371,272.980 425.719,272.980 ZM427.630,270.513 C427.693,270.128 427.725,269.683 427.725,269.179 C427.725,266.939 427.056,265.819 425.719,265.819 C424.382,265.819 423.714,266.939 423.714,269.179 C423.714,269.683 423.745,270.128 423.808,270.513 C423.871,270.898 423.976,271.248 424.123,271.563 C424.270,271.878 424.478,272.119 424.748,272.287 C425.017,272.455 425.341,272.539 425.719,272.539 C426.097,272.539 426.421,272.455 426.690,272.287 C426.960,272.119 427.168,271.878 427.315,271.563 C427.462,271.248 427.567,270.898 427.630,270.513 ZM417.319,272.466 C417.319,272.123 417.391,271.803 417.535,271.505 C417.678,271.208 417.865,270.950 418.096,270.733 C418.327,270.516 418.581,270.308 418.858,270.108 C419.134,269.909 419.412,269.713 419.692,269.520 C419.972,269.328 420.228,269.132 420.459,268.932 C420.690,268.733 420.877,268.502 421.021,268.239 C421.164,267.977 421.236,267.695 421.236,267.394 C421.236,266.939 421.080,266.563 420.769,266.265 C420.457,265.968 420.042,265.819 419.524,265.819 C419.167,265.819 418.830,265.916 418.511,266.108 C418.192,266.301 417.935,266.554 417.739,266.869 L417.403,266.638 C417.613,266.267 417.911,265.965 418.296,265.730 C418.681,265.496 419.094,265.378 419.535,265.378 C420.221,265.378 420.754,265.574 421.136,265.966 C421.518,266.358 421.708,266.834 421.708,267.394 C421.708,267.786 421.612,268.150 421.420,268.486 C421.227,268.822 420.985,269.102 420.695,269.326 C420.405,269.550 420.091,269.783 419.755,270.024 C419.419,270.266 419.106,270.492 418.816,270.702 C418.525,270.912 418.284,271.167 418.091,271.468 C417.898,271.769 417.802,272.091 417.802,272.434 L421.824,272.434 L421.824,272.854 L417.351,272.854 C417.330,272.714 417.319,272.585 417.319,272.466 Z"/>
    <path fill-rule="evenodd"  fill="rgb(28, 30, 38)"
          d="M375.135,265.819 C374.603,265.819 374.135,265.992 373.733,266.339 C373.330,266.685 373.031,267.107 372.835,267.604 C372.639,268.101 372.524,268.633 372.489,269.200 L372.510,269.200 C372.713,268.892 373.001,268.647 373.376,268.465 C373.750,268.283 374.155,268.192 374.589,268.192 C375.247,268.192 375.787,268.406 376.211,268.833 C376.634,269.260 376.846,269.837 376.846,270.565 C376.846,271.307 376.627,271.895 376.190,272.329 C375.752,272.763 375.219,272.980 374.589,272.980 C373.805,272.980 373.180,272.651 372.714,271.993 C372.249,271.335 372.016,270.523 372.016,269.557 C372.016,269.081 372.077,268.607 372.200,268.134 C372.322,267.662 372.503,267.216 372.741,266.796 C372.979,266.376 373.308,266.034 373.728,265.772 C374.148,265.509 374.627,265.378 375.166,265.378 C375.628,265.378 376.059,265.476 376.458,265.672 L376.237,266.082 C375.929,265.907 375.562,265.819 375.135,265.819 ZM372.662,270.875 C372.749,271.131 372.874,271.384 373.035,271.636 C373.196,271.888 373.418,272.102 373.701,272.277 C373.985,272.452 374.298,272.539 374.641,272.539 C375.159,272.539 375.577,272.352 375.896,271.977 C376.214,271.603 376.374,271.125 376.374,270.544 C376.374,269.956 376.207,269.491 375.875,269.148 C375.542,268.805 375.107,268.633 374.568,268.633 C374.043,268.633 373.572,268.784 373.155,269.085 C372.739,269.386 372.531,269.757 372.531,270.198 C372.531,270.394 372.574,270.620 372.662,270.875 ZM367.291,272.434 L368.961,272.434 L368.961,266.449 L368.971,266.082 L368.950,266.082 C368.901,266.173 368.772,266.323 368.562,266.533 L367.690,267.405 L367.375,267.100 L368.961,265.504 L369.412,265.504 L369.412,272.434 L371.040,272.434 L371.040,272.854 L367.291,272.854 L367.291,272.434 ZM363.469,272.980 C361.817,272.980 360.991,271.713 360.991,269.179 C360.991,266.645 361.817,265.378 363.469,265.378 C365.121,265.378 365.947,266.645 365.947,269.179 C365.947,271.713 365.121,272.980 363.469,272.980 ZM365.380,270.513 C365.443,270.128 365.475,269.683 365.475,269.179 C365.475,266.939 364.806,265.819 363.469,265.819 C362.132,265.819 361.464,266.939 361.464,269.179 C361.464,269.683 361.495,270.128 361.558,270.513 C361.621,270.898 361.726,271.248 361.873,271.563 C362.020,271.878 362.228,272.119 362.498,272.287 C362.767,272.455 363.091,272.539 363.469,272.539 C363.847,272.539 364.171,272.455 364.440,272.287 C364.710,272.119 364.918,271.878 365.065,271.563 C365.212,271.248 365.317,270.898 365.380,270.513 ZM355.069,272.466 C355.069,272.123 355.141,271.803 355.285,271.505 C355.428,271.208 355.615,270.950 355.846,270.733 C356.077,270.516 356.331,270.308 356.608,270.108 C356.884,269.909 357.162,269.713 357.442,269.520 C357.722,269.328 357.978,269.132 358.209,268.932 C358.440,268.733 358.627,268.502 358.771,268.239 C358.914,267.977 358.986,267.695 358.986,267.394 C358.986,266.939 358.830,266.563 358.519,266.265 C358.207,265.968 357.792,265.819 357.274,265.819 C356.917,265.819 356.580,265.916 356.261,266.108 C355.942,266.301 355.685,266.554 355.489,266.869 L355.153,266.638 C355.363,266.267 355.661,265.965 356.046,265.730 C356.431,265.496 356.844,265.378 357.285,265.378 C357.971,265.378 358.504,265.574 358.886,265.966 C359.268,266.358 359.458,266.834 359.458,267.394 C359.458,267.786 359.362,268.150 359.170,268.486 C358.977,268.822 358.735,269.102 358.445,269.326 C358.155,269.550 357.841,269.783 357.505,270.024 C357.169,270.266 356.856,270.492 356.566,270.702 C356.275,270.912 356.034,271.167 355.841,271.468 C355.648,271.769 355.552,272.091 355.552,272.434 L359.574,272.434 L359.574,272.854 L355.101,272.854 C355.080,272.714 355.069,272.585 355.069,272.466 Z"/>
    <path fill-rule="evenodd"  fill="rgb(28, 30, 38)"
          d="M310.648,268.119 L310.575,268.570 L310.596,268.570 C310.939,268.346 311.359,268.234 311.856,268.234 C312.556,268.234 313.149,268.465 313.635,268.927 C314.122,269.389 314.365,269.953 314.365,270.618 C314.365,271.276 314.120,271.834 313.630,272.292 C313.140,272.751 312.549,272.980 311.856,272.980 C311.436,272.980 311.042,272.887 310.674,272.702 C310.307,272.517 310.011,272.256 309.787,271.920 L310.155,271.636 C310.547,272.238 311.114,272.539 311.856,272.539 C312.430,272.539 312.913,272.355 313.305,271.988 C313.697,271.620 313.893,271.164 313.893,270.618 C313.893,270.065 313.697,269.603 313.305,269.232 C312.913,268.861 312.430,268.675 311.856,268.675 C311.310,268.675 310.834,268.822 310.428,269.116 L310.092,269.001 L310.512,265.504 L313.924,265.504 L313.924,265.924 L310.911,265.924 L310.648,268.119 ZM305.041,272.434 L306.711,272.434 L306.711,266.449 L306.721,266.082 L306.700,266.082 C306.651,266.173 306.522,266.323 306.312,266.533 L305.440,267.405 L305.125,267.100 L306.711,265.504 L307.162,265.504 L307.162,272.434 L308.790,272.434 L308.790,272.854 L305.041,272.854 L305.041,272.434 ZM301.219,272.980 C299.567,272.980 298.741,271.713 298.741,269.179 C298.741,266.645 299.567,265.378 301.219,265.378 C302.871,265.378 303.697,266.645 303.697,269.179 C303.697,271.713 302.871,272.980 301.219,272.980 ZM303.130,270.513 C303.193,270.128 303.225,269.683 303.225,269.179 C303.225,266.939 302.556,265.819 301.219,265.819 C299.882,265.819 299.214,266.939 299.214,269.179 C299.214,269.683 299.245,270.128 299.308,270.513 C299.371,270.898 299.476,271.248 299.623,271.563 C299.770,271.878 299.978,272.119 300.248,272.287 C300.517,272.455 300.841,272.539 301.219,272.539 C301.597,272.539 301.921,272.455 302.190,272.287 C302.460,272.119 302.668,271.878 302.815,271.563 C302.962,271.248 303.067,270.898 303.130,270.513 ZM292.819,272.466 C292.819,272.123 292.891,271.803 293.035,271.505 C293.178,271.208 293.365,270.950 293.596,270.733 C293.827,270.516 294.081,270.308 294.358,270.108 C294.634,269.909 294.912,269.713 295.192,269.520 C295.472,269.328 295.728,269.132 295.959,268.932 C296.190,268.733 296.377,268.502 296.521,268.239 C296.664,267.977 296.736,267.695 296.736,267.394 C296.736,266.939 296.580,266.563 296.269,266.265 C295.957,265.968 295.542,265.819 295.024,265.819 C294.667,265.819 294.330,265.916 294.011,266.108 C293.692,266.301 293.435,266.554 293.239,266.869 L292.903,266.638 C293.113,266.267 293.411,265.965 293.796,265.730 C294.181,265.496 294.594,265.378 295.035,265.378 C295.721,265.378 296.254,265.574 296.636,265.966 C297.018,266.358 297.208,266.834 297.208,267.394 C297.208,267.786 297.112,268.150 296.920,268.486 C296.727,268.822 296.485,269.102 296.195,269.326 C295.905,269.550 295.591,269.783 295.255,270.024 C294.919,270.266 294.606,270.492 294.316,270.702 C294.025,270.912 293.784,271.167 293.591,271.468 C293.398,271.769 293.302,272.091 293.302,272.434 L297.324,272.434 L297.324,272.854 L292.851,272.854 C292.830,272.714 292.819,272.585 292.819,272.466 Z"/>
    <path fill-rule="evenodd"  fill="rgb(28, 30, 38)"
          d="M250.620,270.754 L250.620,272.854 L250.168,272.854 L250.168,270.754 L246.388,270.754 L246.388,270.439 L250.200,265.504 L250.620,265.504 L250.620,270.334 L251.712,270.334 L251.712,270.754 L250.620,270.754 ZM250.179,266.229 C250.060,266.404 249.937,266.572 249.811,266.733 L247.018,270.313 L247.018,270.334 L250.168,270.334 L250.168,266.890 L250.200,266.229 L250.179,266.229 ZM242.041,272.434 L243.711,272.434 L243.711,266.449 L243.721,266.082 L243.700,266.082 C243.651,266.173 243.522,266.323 243.312,266.533 L242.440,267.405 L242.125,267.100 L243.711,265.504 L244.162,265.504 L244.162,272.434 L245.790,272.434 L245.790,272.854 L242.041,272.854 L242.041,272.434 ZM238.219,272.980 C236.567,272.980 235.741,271.713 235.741,269.179 C235.741,266.645 236.567,265.378 238.219,265.378 C239.871,265.378 240.697,266.645 240.697,269.179 C240.697,271.713 239.871,272.980 238.219,272.980 ZM240.130,270.513 C240.193,270.128 240.225,269.683 240.225,269.179 C240.225,266.939 239.556,265.819 238.219,265.819 C236.882,265.819 236.214,266.939 236.214,269.179 C236.214,269.683 236.245,270.128 236.308,270.513 C236.371,270.898 236.476,271.248 236.623,271.563 C236.770,271.878 236.978,272.119 237.248,272.287 C237.517,272.455 237.841,272.539 238.219,272.539 C238.597,272.539 238.921,272.455 239.190,272.287 C239.460,272.119 239.668,271.878 239.815,271.563 C239.962,271.248 240.067,270.898 240.130,270.513 ZM229.819,272.466 C229.819,272.123 229.891,271.803 230.035,271.505 C230.178,271.208 230.365,270.950 230.596,270.733 C230.827,270.516 231.081,270.308 231.358,270.108 C231.634,269.909 231.912,269.713 232.192,269.520 C232.472,269.328 232.728,269.132 232.959,268.932 C233.190,268.733 233.377,268.502 233.521,268.239 C233.664,267.977 233.736,267.695 233.736,267.394 C233.736,266.939 233.580,266.563 233.269,266.265 C232.957,265.968 232.542,265.819 232.024,265.819 C231.667,265.819 231.330,265.916 231.011,266.108 C230.692,266.301 230.435,266.554 230.239,266.869 L229.903,266.638 C230.113,266.267 230.411,265.965 230.796,265.730 C231.181,265.496 231.594,265.378 232.035,265.378 C232.721,265.378 233.254,265.574 233.636,265.966 C234.018,266.358 234.208,266.834 234.208,267.394 C234.208,267.786 234.112,268.150 233.920,268.486 C233.727,268.822 233.485,269.102 233.195,269.326 C232.905,269.550 232.591,269.783 232.255,270.024 C231.919,270.266 231.606,270.492 231.316,270.702 C231.025,270.912 230.784,271.167 230.591,271.468 C230.398,271.769 230.302,272.091 230.302,272.434 L234.324,272.434 L234.324,272.854 L229.851,272.854 C229.830,272.714 229.819,272.585 229.819,272.466 Z"/>
    <path fill-rule="evenodd"  fill="rgb(28, 30, 38)"
          d="M187.451,268.659 C187.706,268.726 187.965,268.836 188.228,268.990 C188.490,269.144 188.704,269.372 188.868,269.673 C189.033,269.974 189.115,270.327 189.115,270.733 C189.115,271.356 188.886,271.887 188.427,272.324 C187.969,272.762 187.421,272.980 186.784,272.980 C186.364,272.980 185.953,272.889 185.550,272.707 C185.148,272.525 184.796,272.277 184.495,271.962 L184.831,271.626 C185.062,271.885 185.354,272.102 185.708,272.277 C186.061,272.452 186.427,272.539 186.805,272.539 C187.295,272.539 187.724,272.370 188.091,272.030 C188.459,271.691 188.643,271.258 188.643,270.733 C188.643,270.187 188.448,269.759 188.060,269.447 C187.671,269.136 187.211,268.980 186.679,268.980 L186.175,268.980 L186.049,268.665 L188.107,266.260 L188.433,265.924 L188.433,265.903 C188.300,265.917 188.111,265.924 187.866,265.924 L184.852,265.924 L184.852,265.504 L189.063,265.504 L189.063,265.819 L186.690,268.560 C186.942,268.560 187.195,268.593 187.451,268.659 ZM179.791,272.434 L181.461,272.434 L181.461,266.449 L181.471,266.082 L181.450,266.082 C181.401,266.173 181.272,266.323 181.062,266.533 L180.190,267.405 L179.875,267.100 L181.461,265.504 L181.912,265.504 L181.912,272.434 L183.540,272.434 L183.540,272.854 L179.791,272.854 L179.791,272.434 ZM175.969,272.980 C174.317,272.980 173.491,271.713 173.491,269.179 C173.491,266.645 174.317,265.378 175.969,265.378 C177.621,265.378 178.447,266.645 178.447,269.179 C178.447,271.713 177.621,272.980 175.969,272.980 ZM177.880,270.513 C177.943,270.128 177.975,269.683 177.975,269.179 C177.975,266.939 177.306,265.819 175.969,265.819 C174.632,265.819 173.964,266.939 173.964,269.179 C173.964,269.683 173.995,270.128 174.058,270.513 C174.121,270.898 174.226,271.248 174.373,271.563 C174.520,271.878 174.728,272.119 174.998,272.287 C175.267,272.455 175.591,272.539 175.969,272.539 C176.347,272.539 176.671,272.455 176.940,272.287 C177.210,272.119 177.418,271.878 177.565,271.563 C177.712,271.248 177.817,270.898 177.880,270.513 ZM167.569,272.466 C167.569,272.123 167.641,271.803 167.785,271.505 C167.928,271.208 168.115,270.950 168.346,270.733 C168.577,270.516 168.831,270.308 169.108,270.108 C169.384,269.909 169.662,269.713 169.942,269.520 C170.222,269.328 170.478,269.132 170.709,268.932 C170.940,268.733 171.127,268.502 171.271,268.239 C171.414,267.977 171.486,267.695 171.486,267.394 C171.486,266.939 171.330,266.563 171.019,266.265 C170.707,265.968 170.292,265.819 169.774,265.819 C169.417,265.819 169.080,265.916 168.761,266.108 C168.442,266.301 168.185,266.554 167.989,266.869 L167.653,266.638 C167.863,266.267 168.161,265.965 168.546,265.730 C168.931,265.496 169.344,265.378 169.785,265.378 C170.471,265.378 171.004,265.574 171.386,265.966 C171.768,266.358 171.958,266.834 171.958,267.394 C171.958,267.786 171.862,268.150 171.670,268.486 C171.477,268.822 171.235,269.102 170.945,269.326 C170.655,269.550 170.341,269.783 170.005,270.024 C169.669,270.266 169.356,270.492 169.066,270.702 C168.775,270.912 168.534,271.167 168.341,271.468 C168.148,271.769 168.052,272.091 168.052,272.434 L172.074,272.434 L172.074,272.854 L167.601,272.854 C167.580,272.714 167.569,272.585 167.569,272.466 Z"/>
    <path fill-rule="evenodd"  fill="rgb(28, 30, 38)"
          d="M126.823,272.854 L122.350,272.854 C122.329,272.714 122.319,272.585 122.319,272.466 C122.319,272.123 122.390,271.803 122.534,271.505 C122.677,271.208 122.865,270.950 123.096,270.733 C123.327,270.516 123.580,270.308 123.857,270.108 C124.133,269.909 124.412,269.713 124.692,269.520 C124.972,269.328 125.227,269.132 125.458,268.932 C125.689,268.733 125.876,268.502 126.020,268.239 C126.163,267.977 126.235,267.695 126.235,267.394 C126.235,266.939 126.079,266.563 125.768,266.265 C125.456,265.968 125.042,265.819 124.524,265.819 C124.167,265.819 123.829,265.916 123.510,266.108 C123.192,266.301 122.935,266.554 122.739,266.869 L122.403,266.638 C122.613,266.267 122.910,265.965 123.295,265.730 C123.680,265.496 124.093,265.378 124.534,265.378 C125.220,265.378 125.754,265.574 126.135,265.966 C126.517,266.358 126.708,266.834 126.708,267.394 C126.708,267.786 126.611,268.150 126.419,268.486 C126.226,268.822 125.985,269.102 125.694,269.326 C125.404,269.550 125.091,269.783 124.755,270.024 C124.419,270.266 124.105,270.492 123.815,270.702 C123.524,270.912 123.283,271.167 123.090,271.468 C122.898,271.769 122.802,272.091 122.802,272.434 L126.823,272.434 L126.823,272.854 ZM117.541,272.434 L119.211,272.434 L119.211,266.449 L119.221,266.082 L119.200,266.082 C119.151,266.173 119.022,266.323 118.812,266.533 L117.940,267.405 L117.625,267.100 L119.211,265.504 L119.662,265.504 L119.662,272.434 L121.290,272.434 L121.290,272.854 L117.541,272.854 L117.541,272.434 ZM113.719,272.980 C112.067,272.980 111.241,271.713 111.241,269.179 C111.241,266.645 112.067,265.378 113.719,265.378 C115.371,265.378 116.197,266.645 116.197,269.179 C116.197,271.713 115.371,272.980 113.719,272.980 ZM115.630,270.513 C115.693,270.128 115.725,269.683 115.725,269.179 C115.725,266.939 115.056,265.819 113.719,265.819 C112.382,265.819 111.714,266.939 111.714,269.179 C111.714,269.683 111.745,270.128 111.808,270.513 C111.871,270.898 111.976,271.248 112.123,271.563 C112.270,271.878 112.478,272.119 112.748,272.287 C113.017,272.455 113.341,272.539 113.719,272.539 C114.097,272.539 114.421,272.455 114.690,272.287 C114.960,272.119 115.168,271.878 115.315,271.563 C115.462,271.248 115.567,270.898 115.630,270.513 ZM105.319,272.466 C105.319,272.123 105.391,271.803 105.535,271.505 C105.678,271.208 105.865,270.950 106.096,270.733 C106.327,270.516 106.581,270.308 106.858,270.108 C107.134,269.909 107.412,269.713 107.692,269.520 C107.972,269.328 108.228,269.132 108.459,268.932 C108.690,268.733 108.877,268.502 109.021,268.239 C109.164,267.977 109.236,267.695 109.236,267.394 C109.236,266.939 109.080,266.563 108.769,266.265 C108.457,265.968 108.042,265.819 107.524,265.819 C107.167,265.819 106.830,265.916 106.511,266.108 C106.192,266.301 105.935,266.554 105.739,266.869 L105.403,266.638 C105.613,266.267 105.911,265.965 106.296,265.730 C106.681,265.496 107.094,265.378 107.535,265.378 C108.221,265.378 108.754,265.574 109.136,265.966 C109.518,266.358 109.708,266.834 109.708,267.394 C109.708,267.786 109.612,268.150 109.420,268.486 C109.227,268.822 108.985,269.102 108.695,269.326 C108.405,269.550 108.091,269.783 107.755,270.024 C107.419,270.266 107.106,270.492 106.816,270.702 C106.525,270.912 106.284,271.167 106.091,271.468 C105.898,271.769 105.802,272.091 105.802,272.434 L109.824,272.434 L109.824,272.854 L105.351,272.854 C105.330,272.714 105.319,272.585 105.319,272.466 Z"/>
    <path fill-rule="evenodd"  fill="rgb(28, 30, 38)"
          d="M60.037,272.854 L60.037,272.434 L61.707,272.434 L61.707,266.449 L61.717,266.082 L61.696,266.082 C61.647,266.173 61.518,266.323 61.308,266.533 L60.436,267.405 L60.121,267.100 L61.707,265.504 L62.158,265.504 L62.158,272.434 L63.786,272.434 L63.786,272.854 L60.037,272.854 ZM55.291,272.434 L56.961,272.434 L56.961,266.449 L56.971,266.082 L56.950,266.082 C56.901,266.173 56.772,266.323 56.562,266.533 L55.690,267.405 L55.375,267.100 L56.961,265.504 L57.412,265.504 L57.412,272.434 L59.040,272.434 L59.040,272.854 L55.291,272.854 L55.291,272.434 ZM51.469,272.980 C49.817,272.980 48.991,271.713 48.991,269.179 C48.991,266.645 49.817,265.378 51.469,265.378 C53.121,265.378 53.947,266.645 53.947,269.179 C53.947,271.713 53.121,272.980 51.469,272.980 ZM53.380,270.513 C53.443,270.128 53.475,269.683 53.475,269.179 C53.475,266.939 52.806,265.819 51.469,265.819 C50.132,265.819 49.464,266.939 49.464,269.179 C49.464,269.683 49.495,270.128 49.558,270.513 C49.621,270.898 49.726,271.248 49.873,271.563 C50.020,271.878 50.228,272.119 50.498,272.287 C50.767,272.455 51.091,272.539 51.469,272.539 C51.847,272.539 52.171,272.455 52.440,272.287 C52.710,272.119 52.918,271.878 53.065,271.563 C53.212,271.248 53.317,270.898 53.380,270.513 ZM43.069,272.466 C43.069,272.123 43.141,271.803 43.285,271.505 C43.428,271.208 43.615,270.950 43.846,270.733 C44.077,270.516 44.331,270.308 44.608,270.108 C44.884,269.909 45.162,269.713 45.442,269.520 C45.722,269.328 45.978,269.132 46.209,268.932 C46.440,268.733 46.627,268.502 46.771,268.239 C46.914,267.977 46.986,267.695 46.986,267.394 C46.986,266.939 46.830,266.563 46.519,266.265 C46.207,265.968 45.792,265.819 45.274,265.819 C44.917,265.819 44.580,265.916 44.261,266.108 C43.942,266.301 43.685,266.554 43.489,266.869 L43.153,266.638 C43.363,266.267 43.661,265.965 44.046,265.730 C44.431,265.496 44.844,265.378 45.285,265.378 C45.971,265.378 46.504,265.574 46.886,265.966 C47.268,266.358 47.458,266.834 47.458,267.394 C47.458,267.786 47.362,268.150 47.170,268.486 C46.977,268.822 46.735,269.102 46.445,269.326 C46.155,269.550 45.841,269.783 45.505,270.024 C45.169,270.266 44.856,270.492 44.566,270.702 C44.275,270.912 44.034,271.167 43.841,271.468 C43.648,271.769 43.552,272.091 43.552,272.434 L47.574,272.434 L47.574,272.854 L43.101,272.854 C43.080,272.714 43.069,272.585 43.069,272.466 Z"/>
    <path fill-rule="evenodd"  fill="rgb(28, 30, 38)"
          d="M16.592,56.285 C16.102,56.744 15.511,56.973 14.818,56.973 C14.398,56.973 14.004,56.880 13.636,56.695 C13.269,56.509 12.973,56.249 12.749,55.913 L13.117,55.629 C13.509,56.231 14.076,56.532 14.818,56.532 C15.392,56.532 15.875,56.348 16.267,55.981 C16.659,55.613 16.855,55.157 16.855,54.611 C16.855,54.058 16.659,53.596 16.267,53.225 C15.875,52.854 15.392,52.668 14.818,52.668 C14.272,52.668 13.796,52.815 13.390,53.109 L13.054,52.994 L13.474,49.497 L16.886,49.497 L16.886,49.917 L13.873,49.917 L13.610,52.112 L13.537,52.563 L13.558,52.563 C13.901,52.339 14.321,52.227 14.818,52.227 C15.518,52.227 16.111,52.458 16.597,52.920 C17.084,53.382 17.327,53.946 17.327,54.611 C17.327,55.269 17.082,55.827 16.592,56.285 ZM14.692,29.973 C13.040,29.973 12.214,28.706 12.214,26.172 C12.214,23.638 13.040,22.371 14.692,22.371 C16.344,22.371 17.170,23.638 17.170,26.172 C17.170,28.706 16.344,29.973 14.692,29.973 ZM14.692,22.812 C13.355,22.812 12.686,23.932 12.686,26.172 C12.686,26.676 12.718,27.121 12.781,27.506 C12.844,27.891 12.949,28.241 13.096,28.556 C13.243,28.871 13.451,29.112 13.721,29.280 C13.990,29.448 14.314,29.532 14.692,29.532 C15.070,29.532 15.394,29.448 15.663,29.280 C15.933,29.112 16.141,28.871 16.288,28.556 C16.435,28.241 16.540,27.891 16.603,27.506 C16.666,27.121 16.697,26.676 16.697,26.172 C16.697,23.932 16.029,22.812 14.692,22.812 ZM14.692,76.371 C16.344,76.371 17.170,77.638 17.170,80.172 C17.170,82.706 16.344,83.973 14.692,83.973 C13.040,83.973 12.214,82.706 12.214,80.172 C12.214,77.638 13.040,76.371 14.692,76.371 ZM12.781,81.506 C12.844,81.891 12.949,82.241 13.096,82.556 C13.243,82.871 13.451,83.112 13.721,83.280 C13.990,83.448 14.314,83.532 14.692,83.532 C15.070,83.532 15.393,83.448 15.663,83.280 C15.932,83.112 16.141,82.871 16.288,82.556 C16.435,82.241 16.540,81.891 16.603,81.506 C16.666,81.121 16.697,80.676 16.697,80.172 C16.697,77.932 16.029,76.812 14.692,76.812 C13.355,76.812 12.686,77.932 12.686,80.172 C12.686,80.676 12.718,81.121 12.781,81.506 ZM14.692,130.371 C16.344,130.371 17.170,131.638 17.170,134.172 C17.170,136.706 16.344,137.973 14.692,137.973 C13.040,137.973 12.214,136.706 12.214,134.172 C12.214,131.638 13.040,130.371 14.692,130.371 ZM12.781,135.506 C12.844,135.891 12.949,136.241 13.096,136.556 C13.243,136.871 13.451,137.112 13.720,137.280 C13.990,137.448 14.314,137.532 14.692,137.532 C15.070,137.532 15.393,137.448 15.663,137.280 C15.932,137.112 16.141,136.871 16.288,136.556 C16.435,136.241 16.540,135.891 16.603,135.506 C16.666,135.121 16.697,134.676 16.697,134.172 C16.697,131.932 16.029,130.812 14.692,130.812 C13.355,130.812 12.686,131.932 12.686,134.172 C12.686,134.676 12.718,135.121 12.781,135.506 ZM14.692,184.371 C16.344,184.371 17.170,185.638 17.170,188.172 C17.170,190.706 16.344,191.973 14.692,191.973 C13.039,191.973 12.214,190.706 12.214,188.172 C12.214,185.638 13.039,184.371 14.692,184.371 ZM12.781,189.506 C12.844,189.891 12.949,190.241 13.096,190.556 C13.243,190.871 13.451,191.112 13.720,191.280 C13.990,191.448 14.314,191.532 14.692,191.532 C15.070,191.532 15.393,191.448 15.663,191.280 C15.932,191.112 16.141,190.871 16.288,190.556 C16.435,190.241 16.540,189.891 16.603,189.506 C16.666,189.121 16.697,188.676 16.697,188.172 C16.697,185.932 16.029,184.812 14.692,184.812 C13.354,184.812 12.686,185.932 12.686,188.172 C12.686,188.676 12.718,189.121 12.781,189.506 ZM8.003,110.427 L9.673,110.427 L9.673,104.442 L9.683,104.075 L9.662,104.075 C9.613,104.166 9.484,104.316 9.274,104.526 L8.402,105.398 L8.087,105.093 L9.673,103.497 L10.124,103.497 L10.124,110.427 L11.752,110.427 L11.752,110.847 L8.003,110.847 L8.003,110.427 ZM6.953,56.459 C6.953,56.116 7.025,55.795 7.168,55.498 C7.312,55.200 7.499,54.943 7.730,54.726 C7.961,54.509 8.215,54.301 8.491,54.101 C8.768,53.902 9.046,53.706 9.326,53.513 C9.606,53.321 9.862,53.125 10.093,52.925 C10.324,52.726 10.511,52.495 10.654,52.232 C10.798,51.970 10.870,51.688 10.870,51.387 C10.870,50.932 10.714,50.556 10.402,50.258 C10.091,49.961 9.676,49.812 9.158,49.812 C8.801,49.812 8.463,49.908 8.145,50.101 C7.826,50.293 7.569,50.547 7.373,50.862 L7.037,50.631 C7.247,50.260 7.545,49.957 7.930,49.723 C8.315,49.488 8.728,49.371 9.169,49.371 C9.855,49.371 10.388,49.567 10.770,49.959 C11.151,50.351 11.342,50.827 11.342,51.387 C11.342,51.779 11.246,52.143 11.053,52.479 C10.861,52.815 10.619,53.095 10.329,53.319 C10.038,53.543 9.725,53.776 9.389,54.017 C9.053,54.259 8.740,54.485 8.449,54.695 C8.159,54.905 7.917,55.160 7.725,55.461 C7.532,55.762 7.436,56.084 7.436,56.427 L11.458,56.427 L11.458,56.847 L6.985,56.847 C6.964,56.707 6.953,56.578 6.953,56.459 ZM10.130,29.317 C9.671,29.754 9.123,29.973 8.486,29.973 C8.066,29.973 7.655,29.882 7.253,29.700 C6.850,29.518 6.498,29.270 6.197,28.955 L6.533,28.619 C6.764,28.878 7.057,29.095 7.410,29.270 C7.764,29.445 8.129,29.532 8.507,29.532 C8.997,29.532 9.426,29.362 9.794,29.023 C10.161,28.683 10.345,28.251 10.345,27.726 C10.345,27.180 10.151,26.751 9.762,26.440 C9.374,26.128 8.913,25.973 8.381,25.973 L7.877,25.973 L7.751,25.658 L9.809,23.253 L10.135,22.917 L10.135,22.896 C10.002,22.910 9.813,22.917 9.568,22.917 L6.554,22.917 L6.554,22.497 L10.765,22.497 L10.765,22.812 L8.392,25.553 C8.644,25.553 8.898,25.586 9.153,25.652 C9.409,25.719 9.668,25.829 9.930,25.983 C10.193,26.137 10.406,26.365 10.571,26.666 C10.735,26.967 10.817,27.320 10.817,27.726 C10.817,28.349 10.588,28.879 10.130,29.317 ZM2.176,56.427 L3.845,56.427 L3.845,50.442 L3.856,50.075 L3.835,50.075 C3.786,50.166 3.656,50.316 3.446,50.526 L2.575,51.398 L2.260,51.093 L3.845,49.497 L4.297,49.497 L4.297,56.427 L5.924,56.427 L5.924,56.847 L2.176,56.847 L2.176,56.427 ZM1.493,29.427 L3.163,29.427 L3.163,23.442 L3.173,23.075 L3.152,23.075 C3.103,23.166 2.974,23.316 2.764,23.526 L1.892,24.398 L1.577,24.093 L3.163,22.497 L3.614,22.497 L3.614,29.427 L5.242,29.427 L5.242,29.847 L1.493,29.847 L1.493,29.427 ZM2.186,185.526 L1.315,186.398 L1.000,186.093 L2.585,184.497 L3.037,184.497 L3.037,191.427 L4.664,191.427 L4.664,191.847 L0.916,191.847 L0.916,191.427 L2.585,191.427 L2.585,185.442 L2.596,185.075 L2.575,185.075 C2.526,185.166 2.396,185.316 2.186,185.526 ZM1.577,164.427 L3.247,164.427 L3.247,158.442 L3.257,158.075 L3.236,158.075 C3.187,158.166 3.058,158.316 2.848,158.526 L1.976,159.398 L1.661,159.093 L3.247,157.497 L3.698,157.497 L3.698,164.427 L5.326,164.427 L5.326,164.847 L1.577,164.847 L1.577,164.427 ZM8.266,184.371 C9.918,184.371 10.744,185.638 10.744,188.172 C10.744,190.706 9.918,191.973 8.266,191.973 C6.613,191.973 5.788,190.706 5.788,188.172 C5.788,185.638 6.613,184.371 8.266,184.371 ZM6.355,189.506 C6.418,189.891 6.523,190.241 6.670,190.556 C6.817,190.871 7.025,191.112 7.294,191.280 C7.564,191.448 7.888,191.532 8.266,191.532 C8.644,191.532 8.967,191.448 9.237,191.280 C9.506,191.112 9.715,190.871 9.862,190.556 C10.009,190.241 10.114,189.891 10.177,189.506 C10.240,189.121 10.271,188.676 10.271,188.172 C10.271,185.932 9.603,184.812 8.266,184.812 C6.928,184.812 6.260,185.932 6.260,188.172 C6.260,188.676 6.292,189.121 6.355,189.506 ZM6.607,239.022 C7.041,238.588 7.576,238.371 8.213,238.371 C9.004,238.371 9.631,238.700 10.093,239.358 C10.555,240.016 10.786,240.832 10.786,241.805 C10.786,242.281 10.725,242.753 10.602,243.222 C10.480,243.691 10.299,244.136 10.061,244.556 C9.823,244.976 9.493,245.317 9.069,245.579 C8.646,245.842 8.164,245.973 7.625,245.973 C7.163,245.973 6.736,245.875 6.344,245.679 L6.565,245.270 C6.873,245.445 7.233,245.532 7.646,245.532 C8.185,245.532 8.658,245.359 9.064,245.012 C9.470,244.666 9.771,244.246 9.967,243.752 C10.163,243.259 10.278,242.725 10.313,242.151 L10.292,242.151 C10.089,242.459 9.801,242.704 9.426,242.886 C9.052,243.068 8.647,243.159 8.213,243.159 C7.555,243.159 7.015,242.946 6.591,242.519 C6.168,242.092 5.956,241.525 5.956,240.818 C5.956,240.055 6.173,239.456 6.607,239.022 ZM6.927,242.204 C7.260,242.547 7.695,242.718 8.234,242.718 C8.780,242.718 9.256,242.562 9.662,242.251 C10.068,241.939 10.271,241.609 10.271,241.259 C10.271,240.692 10.075,240.142 9.683,239.610 C9.291,239.078 8.805,238.812 8.224,238.812 C7.671,238.812 7.233,238.998 6.911,239.369 C6.589,239.740 6.428,240.223 6.428,240.818 C6.428,241.399 6.595,241.861 6.927,242.204 ZM11.405,161.172 C11.405,163.706 10.579,164.973 8.927,164.973 C7.275,164.973 6.449,163.706 6.449,161.172 C6.449,158.638 7.275,157.371 8.927,157.371 C10.579,157.371 11.405,158.638 11.405,161.172 ZM8.927,157.812 C7.590,157.812 6.922,158.932 6.922,161.172 C6.922,161.676 6.953,162.121 7.016,162.506 C7.079,162.891 7.184,163.241 7.331,163.556 C7.478,163.871 7.687,164.112 7.956,164.280 C8.225,164.448 8.549,164.532 8.927,164.532 C9.305,164.532 9.629,164.448 9.899,164.280 C10.168,164.112 10.376,163.871 10.523,163.556 C10.670,163.241 10.775,162.891 10.838,162.506 C10.901,162.121 10.933,161.676 10.933,161.172 C10.933,158.932 10.264,157.812 8.927,157.812 ZM8.612,131.526 L7.741,132.398 L7.426,132.093 L9.011,130.497 L9.463,130.497 L9.463,137.427 L11.090,137.427 L11.090,137.847 L7.342,137.847 L7.342,137.427 L9.011,137.427 L9.011,131.442 L9.022,131.075 L9.001,131.075 C8.952,131.166 8.822,131.316 8.612,131.526 ZM5.378,110.427 L7.006,110.427 L7.006,110.847 L3.257,110.847 L3.257,110.427 L4.927,110.427 L4.927,104.442 L4.937,104.075 L4.916,104.075 C4.867,104.166 4.738,104.316 4.528,104.526 L3.656,105.398 L3.341,105.093 L4.927,103.497 L5.378,103.497 L5.378,110.427 ZM3.866,131.526 L2.995,132.398 L2.680,132.093 L4.265,130.497 L4.717,130.497 L4.717,137.427 L6.344,137.427 L6.344,137.847 L2.596,137.847 L2.596,137.427 L4.265,137.427 L4.265,131.442 L4.276,131.075 L4.255,131.075 C4.206,131.166 4.076,131.316 3.866,131.526 ZM2.785,77.526 L1.913,78.398 L1.598,78.093 L3.184,76.497 L3.635,76.497 L3.635,83.427 L5.263,83.427 L5.263,83.847 L1.514,83.847 L1.514,83.427 L3.184,83.427 L3.184,77.442 L3.194,77.075 L3.173,77.075 C3.124,77.166 2.995,77.316 2.785,77.526 ZM10.796,83.847 L6.323,83.847 C6.302,83.707 6.292,83.578 6.292,83.459 C6.292,83.116 6.364,82.795 6.507,82.498 C6.650,82.200 6.838,81.943 7.069,81.726 C7.300,81.509 7.553,81.301 7.830,81.101 C8.107,80.902 8.385,80.706 8.665,80.513 C8.945,80.321 9.200,80.125 9.431,79.925 C9.662,79.726 9.850,79.495 9.993,79.232 C10.136,78.970 10.208,78.688 10.208,78.387 C10.208,77.932 10.052,77.556 9.741,77.258 C9.430,76.961 9.015,76.812 8.497,76.812 C8.140,76.812 7.802,76.908 7.484,77.101 C7.165,77.293 6.908,77.547 6.712,77.862 L6.376,77.631 C6.586,77.260 6.883,76.957 7.268,76.723 C7.653,76.488 8.066,76.371 8.507,76.371 C9.193,76.371 9.727,76.567 10.109,76.959 C10.490,77.351 10.681,77.827 10.681,78.387 C10.681,78.779 10.585,79.143 10.392,79.479 C10.199,79.815 9.958,80.095 9.668,80.319 C9.377,80.543 9.064,80.776 8.728,81.017 C8.392,81.259 8.078,81.485 7.788,81.695 C7.498,81.905 7.256,82.160 7.064,82.461 C6.871,82.762 6.775,83.084 6.775,83.427 L10.796,83.427 L10.796,83.847 ZM9.731,218.579 C9.307,218.842 8.826,218.973 8.287,218.973 C7.825,218.973 7.398,218.875 7.006,218.679 L7.226,218.270 C7.534,218.445 7.895,218.532 8.308,218.532 C8.847,218.532 9.319,218.359 9.725,218.012 C10.131,217.666 10.432,217.246 10.628,216.752 C10.824,216.259 10.940,215.725 10.975,215.151 L10.954,215.151 C10.751,215.459 10.462,215.704 10.088,215.886 C9.713,216.068 9.309,216.159 8.875,216.159 C8.217,216.159 7.676,215.946 7.253,215.519 C6.829,215.092 6.617,214.525 6.617,213.818 C6.617,213.055 6.834,212.456 7.268,212.022 C7.702,211.588 8.238,211.371 8.875,211.371 C9.666,211.371 10.292,211.700 10.754,212.358 C11.216,213.016 11.447,213.832 11.447,214.805 C11.447,215.281 11.386,215.753 11.264,216.222 C11.141,216.691 10.961,217.136 10.723,217.556 C10.485,217.976 10.154,218.317 9.731,218.579 ZM10.345,212.610 C9.953,212.078 9.466,211.812 8.885,211.812 C8.332,211.812 7.895,211.998 7.573,212.369 C7.251,212.740 7.090,213.223 7.090,213.818 C7.090,214.399 7.256,214.861 7.589,215.204 C7.921,215.547 8.357,215.718 8.896,215.718 C9.442,215.718 9.918,215.562 10.324,215.251 C10.730,214.939 10.933,214.609 10.933,214.259 C10.933,213.692 10.737,213.142 10.345,212.610 ZM14.692,238.371 C16.344,238.371 17.170,239.638 17.170,242.172 C17.170,244.706 16.344,245.973 14.692,245.973 C13.040,245.973 12.214,244.706 12.214,242.172 C12.214,239.638 13.040,238.371 14.692,238.371 ZM12.781,243.506 C12.844,243.891 12.949,244.241 13.096,244.556 C13.243,244.871 13.451,245.112 13.721,245.280 C13.990,245.448 14.314,245.532 14.692,245.532 C15.070,245.532 15.394,245.448 15.663,245.280 C15.932,245.112 16.141,244.871 16.288,244.556 C16.435,244.241 16.540,243.891 16.603,243.506 C16.666,243.121 16.697,242.676 16.697,242.172 C16.697,239.932 16.029,238.812 14.692,238.812 C13.355,238.812 12.686,239.932 12.686,242.172 C12.686,242.676 12.718,243.121 12.781,243.506 ZM14.818,218.973 C14.398,218.973 14.004,218.880 13.636,218.695 C13.269,218.509 12.973,218.249 12.749,217.913 L13.117,217.629 C13.509,218.231 14.076,218.532 14.818,218.532 C15.392,218.532 15.875,218.348 16.267,217.981 C16.659,217.613 16.855,217.157 16.855,216.611 C16.855,216.058 16.659,215.596 16.267,215.225 C15.875,214.854 15.392,214.668 14.818,214.668 C14.272,214.668 13.796,214.815 13.390,215.109 L13.054,214.994 L13.474,211.497 L16.886,211.497 L16.886,211.917 L13.873,211.917 L13.610,214.112 L13.537,214.563 L13.558,214.563 C13.901,214.339 14.321,214.227 14.818,214.227 C15.518,214.227 16.111,214.458 16.597,214.920 C17.084,215.382 17.327,215.946 17.327,216.611 C17.327,217.269 17.082,217.827 16.592,218.285 C16.102,218.744 15.511,218.973 14.818,218.973 ZM16.592,164.285 C16.102,164.744 15.511,164.973 14.818,164.973 C14.398,164.973 14.004,164.880 13.637,164.695 C13.269,164.509 12.973,164.249 12.749,163.913 L13.117,163.629 C13.509,164.231 14.076,164.532 14.818,164.532 C15.392,164.532 15.875,164.348 16.267,163.981 C16.659,163.613 16.855,163.157 16.855,162.611 C16.855,162.058 16.659,161.596 16.267,161.225 C15.875,160.854 15.392,160.668 14.818,160.668 C14.272,160.668 13.796,160.815 13.390,161.109 L13.054,160.994 L13.474,157.497 L16.886,157.497 L16.886,157.917 L13.873,157.917 L13.610,160.112 L13.537,160.563 L13.558,160.563 C13.901,160.339 14.321,160.227 14.818,160.227 C15.518,160.227 16.111,160.458 16.598,160.920 C17.084,161.382 17.327,161.946 17.327,162.611 C17.327,163.269 17.082,163.827 16.592,164.285 ZM14.818,106.227 C15.517,106.227 16.111,106.458 16.597,106.920 C17.084,107.382 17.327,107.946 17.327,108.611 C17.327,109.269 17.082,109.827 16.592,110.285 C16.102,110.744 15.511,110.973 14.818,110.973 C14.398,110.973 14.004,110.880 13.636,110.695 C13.269,110.509 12.973,110.249 12.749,109.913 L13.117,109.629 C13.509,110.231 14.076,110.532 14.818,110.532 C15.391,110.532 15.874,110.348 16.267,109.981 C16.659,109.613 16.855,109.157 16.855,108.611 C16.855,108.058 16.659,107.596 16.267,107.225 C15.874,106.854 15.391,106.668 14.818,106.668 C14.272,106.668 13.795,106.815 13.390,107.109 L13.054,106.994 L13.474,103.497 L16.886,103.497 L16.886,103.917 L13.873,103.917 L13.610,106.112 L13.537,106.563 L13.558,106.563 C13.900,106.339 14.320,106.227 14.818,106.227 Z"/>
    <path fill-rule="evenodd"  opacity="0.302" fill="rgb(192, 192, 192)"
          d="M501.750,110.000 L501.750,254.000 L30.000,254.000 L49.500,210.500 L172.500,209.000 L261.750,158.750 L334.500,162.500 L398.578,152.886 L501.750,110.000 Z"/>
    <path fill-rule="evenodd"  opacity="0.4" fill="rgb(207, 81, 178)"
          d="M501.750,119.750 L501.750,254.000 L30.000,254.000 L57.000,218.000 L173.250,216.500 L276.750,158.750 L334.500,170.000 L501.750,119.750 Z"/>
    <path fill="url(#PSgrad_0)"
          d="M501.750,119.750 L501.750,254.000 L30.000,254.000 L57.000,218.000 L173.250,216.500 L276.750,158.750 L334.500,170.000 L501.750,119.750 Z"/>
    <path fill-rule="evenodd"  fill="rgb(207, 81, 178)"
          d="M502.006,119.704 L334.755,170.704 L334.499,170.000 L334.346,170.733 L276.871,158.790 L174.367,216.403 L173.999,215.749 L174.008,216.499 L57.383,217.994 L30.603,254.443 L29.395,253.555 L56.394,216.805 L56.999,217.249 L56.989,216.499 L173.799,215.002 L276.382,157.345 L276.749,157.999 L276.902,157.265 L334.465,169.226 L501.492,118.294 L502.006,119.704 Z"/>
    <path fill-rule="evenodd"  fill="rgb(28, 30, 38)"
          d="M487.656,7.013 C487.219,7.517 486.653,7.769 485.960,7.769 C485.568,7.769 485.208,7.660 484.879,7.444 C484.550,7.227 484.305,6.940 484.144,6.583 L484.123,6.583 C484.151,6.709 484.165,6.863 484.165,7.045 L484.165,7.643 L483.724,7.643 L483.724,0.293 L484.165,0.293 L484.165,3.023 L484.123,3.454 L484.144,3.454 C484.305,3.090 484.553,2.801 484.889,2.587 C485.225,2.374 485.610,2.267 486.044,2.267 C486.737,2.267 487.289,2.519 487.698,3.023 C488.108,3.527 488.312,4.192 488.312,5.018 C488.312,5.844 488.094,6.509 487.656,7.013 ZM487.341,3.333 C487.002,2.909 486.562,2.698 486.023,2.698 C485.491,2.698 485.047,2.892 484.690,3.280 C484.333,3.669 484.154,4.252 484.154,5.029 C484.154,5.659 484.314,6.201 484.632,6.656 C484.951,7.111 485.400,7.339 485.981,7.339 C486.513,7.339 486.958,7.130 487.315,6.714 C487.672,6.297 487.850,5.732 487.850,5.018 C487.850,4.318 487.681,3.756 487.341,3.333 ZM481.509,6.950 L481.551,6.478 L481.530,6.478 C481.389,6.842 481.157,7.148 480.831,7.396 C480.506,7.645 480.126,7.769 479.692,7.769 C479.216,7.769 478.800,7.638 478.443,7.375 C478.086,7.113 477.907,6.737 477.907,6.247 C477.907,6.002 477.952,5.781 478.044,5.585 C478.134,5.389 478.246,5.230 478.380,5.107 C478.512,4.985 478.686,4.878 478.899,4.787 C479.113,4.696 479.307,4.630 479.482,4.588 C479.657,4.546 479.867,4.512 480.112,4.488 C480.357,4.463 480.546,4.449 480.679,4.446 C480.812,4.442 480.973,4.441 481.162,4.441 L481.509,4.441 L481.509,4.262 C481.509,3.219 481.029,2.698 480.070,2.698 C479.510,2.698 479.010,2.866 478.569,3.202 L478.317,2.845 C478.519,2.670 478.782,2.530 479.104,2.425 C479.426,2.320 479.755,2.267 480.091,2.267 C480.700,2.267 481.162,2.435 481.477,2.771 C481.792,3.107 481.950,3.601 481.950,4.252 L481.950,7.643 L481.509,7.643 L481.509,6.950 ZM481.509,4.850 L481.173,4.850 C480.955,4.850 480.779,4.852 480.642,4.855 C480.506,4.859 480.310,4.873 480.054,4.897 C479.799,4.922 479.589,4.964 479.424,5.023 C479.260,5.083 479.088,5.160 478.910,5.254 C478.731,5.349 478.596,5.478 478.506,5.643 C478.414,5.807 478.369,5.998 478.369,6.215 C478.369,6.516 478.488,6.782 478.726,7.013 C478.964,7.244 479.293,7.360 479.713,7.360 C480.252,7.360 480.686,7.130 481.015,6.672 C481.344,6.213 481.509,5.701 481.509,5.134 L481.509,4.850 ZM476.637,7.654 C476.511,7.633 476.367,7.582 476.206,7.501 C476.045,7.421 475.905,7.314 475.786,7.181 C475.667,7.048 475.566,6.857 475.482,6.609 C475.398,6.360 475.356,6.072 475.356,5.743 L475.356,2.824 L474.663,2.824 L474.663,2.425 L475.356,2.425 L475.356,0.934 L475.797,0.934 L475.797,2.425 L477.172,2.425 L477.172,2.824 L475.797,2.824 L475.797,5.711 C475.797,6.033 475.840,6.306 475.928,6.530 C476.015,6.754 476.129,6.917 476.269,7.018 C476.409,7.120 476.540,7.188 476.663,7.223 C476.785,7.258 476.913,7.276 477.046,7.276 C477.151,7.276 477.232,7.269 477.288,7.255 L477.288,7.664 C477.232,7.678 477.144,7.685 477.025,7.685 C476.892,7.685 476.763,7.675 476.637,7.654 ZM471.917,4.698 C472.201,4.806 472.482,4.918 472.762,5.034 C473.042,5.149 473.282,5.317 473.482,5.538 C473.681,5.758 473.781,6.030 473.781,6.352 C473.781,6.772 473.623,7.113 473.308,7.375 C472.993,7.638 472.591,7.769 472.101,7.769 C471.296,7.769 470.662,7.517 470.200,7.013 L470.484,6.677 C470.904,7.118 471.446,7.339 472.111,7.339 C472.454,7.339 472.741,7.251 472.972,7.076 C473.203,6.901 473.319,6.660 473.319,6.352 C473.319,6.107 473.219,5.900 473.020,5.732 C472.820,5.564 472.580,5.428 472.300,5.323 C472.020,5.218 471.739,5.106 471.455,4.987 C471.172,4.868 470.930,4.700 470.731,4.483 C470.531,4.266 470.431,4.000 470.431,3.685 C470.431,3.237 470.592,2.888 470.914,2.640 C471.236,2.391 471.635,2.267 472.111,2.267 C472.776,2.267 473.294,2.456 473.665,2.834 L473.403,3.191 C473.095,2.862 472.654,2.698 472.080,2.698 C471.751,2.698 471.471,2.776 471.240,2.934 C471.009,3.091 470.893,3.331 470.893,3.653 C470.893,3.905 470.993,4.115 471.193,4.283 C471.392,4.451 471.634,4.589 471.917,4.698 ZM467.775,7.717 C467.131,7.717 466.592,7.594 466.158,7.349 L466.158,6.866 C466.613,7.146 467.155,7.286 467.785,7.286 C468.107,7.286 468.379,7.202 468.599,7.034 C468.820,6.866 468.930,6.621 468.930,6.299 C468.930,6.096 468.854,5.904 468.704,5.722 C468.553,5.540 468.370,5.380 468.153,5.244 C467.936,5.107 467.717,4.971 467.497,4.834 C467.276,4.698 467.090,4.542 466.940,4.367 C466.789,4.192 466.714,4.003 466.714,3.800 C466.714,3.590 466.781,3.387 466.914,3.191 C467.047,2.995 467.192,2.832 467.350,2.703 C467.507,2.573 467.652,2.411 467.785,2.215 C467.918,2.019 467.985,1.819 467.985,1.616 C467.985,1.350 467.875,1.114 467.654,0.907 C467.434,0.701 467.127,0.598 466.735,0.598 C466.336,0.598 465.985,0.732 465.680,1.002 C465.376,1.271 465.223,1.634 465.223,2.089 L465.223,7.643 L464.782,7.643 L464.782,2.057 C464.782,1.476 464.980,1.016 465.376,0.676 C465.771,0.337 466.231,0.167 466.756,0.167 C467.274,0.167 467.686,0.312 467.990,0.603 C468.295,0.893 468.447,1.231 468.447,1.616 C468.447,1.875 468.380,2.117 468.247,2.341 C468.114,2.565 467.969,2.741 467.812,2.871 C467.654,3.000 467.509,3.147 467.376,3.312 C467.243,3.476 467.176,3.632 467.176,3.779 C467.176,3.947 467.292,4.124 467.523,4.309 C467.754,4.495 468.007,4.666 468.284,4.824 C468.560,4.981 468.814,5.191 469.045,5.454 C469.276,5.716 469.392,5.998 469.392,6.299 C469.392,6.754 469.234,7.104 468.919,7.349 C468.604,7.594 468.223,7.717 467.775,7.717 ZM462.567,6.950 L462.609,6.478 L462.588,6.478 C462.448,6.842 462.215,7.148 461.890,7.396 C461.564,7.645 461.184,7.769 460.750,7.769 C460.274,7.769 459.858,7.638 459.501,7.375 C459.144,7.113 458.965,6.737 458.965,6.247 C458.965,6.002 459.011,5.781 459.102,5.585 C459.193,5.389 459.305,5.230 459.438,5.107 C459.571,4.985 459.744,4.878 459.958,4.787 C460.171,4.696 460.365,4.630 460.540,4.588 C460.715,4.546 460.925,4.512 461.170,4.488 C461.415,4.463 461.604,4.449 461.737,4.446 C461.870,4.442 462.031,4.441 462.220,4.441 L462.567,4.441 L462.567,4.262 C462.567,3.219 462.087,2.698 461.128,2.698 C460.568,2.698 460.068,2.866 459.627,3.202 L459.375,2.845 C459.578,2.670 459.840,2.530 460.162,2.425 C460.484,2.320 460.813,2.267 461.149,2.267 C461.758,2.267 462.220,2.435 462.535,2.771 C462.850,3.107 463.008,3.601 463.008,4.252 L463.008,7.643 L462.567,7.643 L462.567,6.950 ZM462.567,4.850 L462.231,4.850 C462.014,4.850 461.837,4.852 461.701,4.855 C461.564,4.859 461.368,4.873 461.113,4.897 C460.857,4.922 460.647,4.964 460.483,5.023 C460.318,5.083 460.147,5.160 459.968,5.254 C459.790,5.349 459.655,5.478 459.564,5.643 C459.473,5.807 459.427,5.998 459.427,6.215 C459.427,6.516 459.546,6.782 459.784,7.013 C460.022,7.244 460.351,7.360 460.771,7.360 C461.310,7.360 461.744,7.130 462.073,6.672 C462.402,6.213 462.567,5.701 462.567,5.134 L462.567,4.850 ZM456.792,2.036 L456.760,1.060 L456.739,1.060 C456.599,1.473 456.473,1.798 456.361,2.036 L454.387,6.226 L453.925,6.226 L451.962,2.036 L451.573,1.039 L451.552,1.039 C451.552,1.466 451.542,1.798 451.521,2.036 L451.069,7.643 L450.618,7.643 L451.206,0.293 L451.647,0.293 L453.789,4.913 L454.146,5.743 L454.167,5.743 C454.293,5.428 454.412,5.151 454.524,4.913 L456.666,0.293 L457.107,0.293 L457.695,7.643 L457.243,7.643 L456.792,2.036 ZM445.693,6.982 L446.334,6.982 L446.334,7.643 L445.693,7.643 L445.693,6.982 ZM441.556,9.848 C440.989,9.848 440.440,9.712 439.908,9.439 L440.118,9.050 C440.573,9.295 441.042,9.418 441.525,9.418 C442.120,9.418 442.601,9.269 442.969,8.971 C443.336,8.674 443.520,8.221 443.520,7.612 L443.520,7.003 L443.562,6.572 L443.541,6.572 C443.191,7.286 442.603,7.643 441.777,7.643 C441.091,7.643 440.531,7.395 440.097,6.898 C439.663,6.401 439.446,5.746 439.446,4.934 C439.446,4.115 439.651,3.466 440.060,2.986 C440.470,2.507 441.017,2.267 441.703,2.267 C442.109,2.267 442.479,2.353 442.811,2.524 C443.144,2.696 443.383,2.953 443.530,3.296 L443.551,3.296 C443.530,3.247 443.520,3.181 443.520,3.097 L443.520,2.393 L443.961,2.393 L443.961,7.612 C443.961,8.368 443.732,8.929 443.273,9.297 C442.815,9.664 442.242,9.848 441.556,9.848 ZM441.703,2.698 C441.136,2.698 440.695,2.894 440.380,3.286 C440.065,3.678 439.908,4.227 439.908,4.934 C439.908,5.634 440.083,6.189 440.433,6.598 C440.783,7.008 441.241,7.213 441.808,7.213 C442.319,7.213 442.734,7.032 443.053,6.672 C443.371,6.311 443.530,5.732 443.530,4.934 C443.530,3.443 442.921,2.698 441.703,2.698 ZM435.624,7.769 C434.868,7.769 434.226,7.500 433.697,6.961 C433.169,6.422 432.904,5.764 432.904,4.987 C432.904,4.224 433.169,3.580 433.697,3.055 C434.226,2.530 434.868,2.267 435.624,2.267 C436.380,2.267 437.022,2.530 437.551,3.055 C438.079,3.580 438.343,4.224 438.343,4.987 C438.343,5.764 438.079,6.422 437.551,6.961 C437.022,7.500 436.380,7.769 435.624,7.769 ZM437.225,3.359 C436.788,2.918 436.254,2.698 435.624,2.698 C434.994,2.698 434.460,2.918 434.023,3.359 C433.585,3.800 433.366,4.343 433.366,4.987 C433.366,5.652 433.585,6.210 434.023,6.661 C434.460,7.113 434.994,7.339 435.624,7.339 C436.254,7.339 436.788,7.113 437.225,6.661 C437.663,6.210 437.881,5.652 437.881,4.987 C437.881,4.343 437.663,3.800 437.225,3.359 ZM431.634,7.648 C431.536,7.624 431.426,7.577 431.303,7.507 C431.181,7.437 431.083,7.323 431.009,7.165 C430.936,7.008 430.899,6.814 430.899,6.583 L430.899,0.293 L431.340,0.293 L431.340,6.446 C431.340,6.992 431.546,7.265 431.960,7.265 C432.023,7.265 432.075,7.262 432.117,7.255 L432.117,7.664 C432.061,7.678 431.998,7.685 431.928,7.685 C431.830,7.685 431.732,7.673 431.634,7.648 ZM425.250,8.630 L425.807,7.003 L426.395,7.003 L425.691,8.630 L425.250,8.630 ZM421.596,7.769 C419.944,7.769 419.118,6.502 419.118,3.968 C419.118,1.434 419.944,0.167 421.596,0.167 C423.248,0.167 424.074,1.434 424.074,3.968 C424.074,6.502 423.248,7.769 421.596,7.769 ZM423.192,6.352 C423.339,6.037 423.444,5.687 423.507,5.302 C423.570,4.917 423.602,4.472 423.602,3.968 C423.602,1.728 422.933,0.608 421.596,0.608 C420.259,0.608 419.591,1.728 419.591,3.968 C419.591,4.472 419.622,4.917 419.685,5.302 C419.748,5.687 419.853,6.037 420.000,6.352 C420.147,6.667 420.355,6.908 420.625,7.076 C420.894,7.244 421.218,7.328 421.596,7.328 C421.974,7.328 422.298,7.244 422.567,7.076 C422.837,6.908 423.045,6.667 423.192,6.352 ZM415.170,7.769 C413.518,7.769 412.692,6.502 412.692,3.968 C412.692,1.434 413.518,0.167 415.170,0.167 C416.822,0.167 417.648,1.434 417.648,3.968 C417.648,6.502 416.822,7.769 415.170,7.769 ZM416.766,6.352 C416.913,6.037 417.018,5.687 417.081,5.302 C417.144,4.917 417.176,4.472 417.176,3.968 C417.176,1.728 416.507,0.608 415.170,0.608 C413.833,0.608 413.165,1.728 413.165,3.968 C413.165,4.472 413.196,4.917 413.259,5.302 C413.322,5.687 413.427,6.037 413.574,6.352 C413.721,6.667 413.929,6.908 414.199,7.076 C414.468,7.244 414.792,7.328 415.170,7.328 C415.548,7.328 415.872,7.244 416.141,7.076 C416.411,6.908 416.619,6.667 416.766,6.352 ZM407.820,7.223 L409.490,7.223 L409.490,1.238 L409.500,0.871 L409.479,0.871 C409.430,0.962 409.301,1.112 409.091,1.322 L408.219,2.194 L407.904,1.889 L409.490,0.293 L409.941,0.293 L409.941,7.223 L411.569,7.223 L411.569,7.643 L407.820,7.643 L407.820,7.223 ZM399.252,5.302 L404.040,5.302 L404.040,5.722 L399.252,5.722 L399.252,5.302 ZM399.252,3.622 L404.040,3.622 L404.040,4.042 L399.252,4.042 L399.252,3.622 ZM392.868,7.769 C391.216,7.769 390.390,6.502 390.390,3.968 C390.390,1.434 391.216,0.167 392.868,0.167 C394.520,0.167 395.346,1.434 395.346,3.968 C395.346,6.502 394.520,7.769 392.868,7.769 ZM394.464,6.352 C394.611,6.037 394.716,5.687 394.779,5.302 C394.842,4.917 394.874,4.472 394.874,3.968 C394.874,1.728 394.205,0.608 392.868,0.608 C391.531,0.608 390.863,1.728 390.863,3.968 C390.863,4.472 390.894,4.917 390.957,5.302 C391.020,5.687 391.125,6.037 391.272,6.352 C391.419,6.667 391.627,6.908 391.897,7.076 C392.166,7.244 392.490,7.328 392.868,7.328 C393.246,7.328 393.570,7.244 393.839,7.076 C394.109,6.908 394.317,6.667 394.464,6.352 ZM385.518,7.223 L387.188,7.223 L387.188,1.238 L387.198,0.871 L387.177,0.871 C387.128,0.962 386.999,1.112 386.789,1.322 L385.917,2.194 L385.602,1.889 L387.188,0.293 L387.639,0.293 L387.639,7.223 L389.267,7.223 L389.267,7.643 L385.518,7.643 L385.518,7.223 ZM381.696,7.769 C380.044,7.769 379.218,6.502 379.218,3.968 C379.218,1.434 380.044,0.167 381.696,0.167 C383.348,0.167 384.174,1.434 384.174,3.968 C384.174,6.502 383.348,7.769 381.696,7.769 ZM383.292,6.352 C383.439,6.037 383.544,5.687 383.607,5.302 C383.670,4.917 383.702,4.472 383.702,3.968 C383.702,1.728 383.033,0.608 381.696,0.608 C380.359,0.608 379.691,1.728 379.691,3.968 C379.691,4.472 379.722,4.917 379.785,5.302 C379.848,5.687 379.953,6.037 380.100,6.352 C380.247,6.667 380.455,6.908 380.725,7.076 C380.994,7.244 381.318,7.328 381.696,7.328 C382.074,7.328 382.398,7.244 382.667,7.076 C382.937,6.908 383.145,6.667 383.292,6.352 ZM373.296,7.255 C373.296,6.912 373.368,6.591 373.512,6.294 C373.655,5.996 373.842,5.739 374.073,5.522 C374.304,5.305 374.558,5.097 374.835,4.897 C375.111,4.698 375.389,4.502 375.669,4.309 C375.949,4.117 376.205,3.921 376.436,3.721 C376.667,3.522 376.854,3.291 376.998,3.028 C377.141,2.766 377.213,2.484 377.213,2.183 C377.213,1.728 377.057,1.352 376.746,1.054 C376.434,0.757 376.019,0.608 375.501,0.608 C375.144,0.608 374.807,0.704 374.488,0.897 C374.169,1.089 373.912,1.343 373.716,1.658 L373.380,1.427 C373.590,1.056 373.888,0.753 374.273,0.519 C374.658,0.284 375.071,0.167 375.512,0.167 C376.198,0.167 376.731,0.363 377.113,0.755 C377.495,1.147 377.685,1.623 377.685,2.183 C377.685,2.575 377.589,2.939 377.397,3.275 C377.204,3.611 376.962,3.891 376.672,4.115 C376.382,4.339 376.068,4.572 375.732,4.813 C375.396,5.055 375.083,5.281 374.793,5.491 C374.502,5.701 374.261,5.956 374.068,6.257 C373.875,6.558 373.779,6.880 373.779,7.223 L377.801,7.223 L377.801,7.643 L373.328,7.643 C373.307,7.503 373.296,7.374 373.296,7.255 Z"/>
    <g filter="url(#Filter_0)">
        <path fill-rule="evenodd"  fill="rgb(207, 81, 178)"
              d="M278.625,141.500 C280.903,141.500 282.750,143.347 282.750,145.625 C282.750,147.903 280.903,149.750 278.625,149.750 C276.347,149.750 274.500,147.903 274.500,145.625 C274.500,143.347 276.347,141.500 278.625,141.500 Z"/>
    </g>
    <path fill-rule="evenodd"  fill="rgb(28, 30, 38)"
          d="M313.555,132.915 L313.555,129.291 C313.555,129.051 313.546,128.845 313.531,128.673 C313.514,128.501 313.478,128.321 313.423,128.133 C313.366,127.945 313.286,127.791 313.183,127.671 C313.078,127.551 312.932,127.453 312.745,127.377 C312.556,127.301 312.334,127.263 312.079,127.263 C311.383,127.263 310.789,127.519 310.297,128.031 C309.805,128.543 309.559,129.187 309.559,129.963 L309.559,132.915 L309.055,132.915 L309.055,124.515 L309.559,124.515 L309.559,127.971 L309.511,128.463 L309.535,128.463 C309.670,128.079 309.962,127.701 310.411,127.329 C310.858,126.957 311.414,126.771 312.079,126.771 C312.814,126.771 313.328,126.969 313.621,127.365 C313.912,127.761 314.059,128.343 314.059,129.111 L314.059,132.915 L313.555,132.915 ZM305.251,132.567 C305.627,132.567 305.995,132.491 306.355,132.339 C306.715,132.187 307.015,131.975 307.255,131.703 L307.519,132.123 C307.262,132.411 306.932,132.639 306.529,132.807 C306.125,132.975 305.699,133.059 305.251,133.059 C304.379,133.059 303.644,132.769 303.049,132.189 C302.453,131.609 302.155,130.855 302.155,129.927 C302.155,128.999 302.456,128.241 303.061,127.653 C303.665,127.065 304.394,126.771 305.251,126.771 C305.651,126.771 306.044,126.843 306.433,126.987 C306.821,127.131 307.142,127.343 307.399,127.623 L307.087,128.031 C306.871,127.799 306.596,127.613 306.265,127.473 C305.933,127.333 305.594,127.263 305.251,127.263 C304.531,127.263 303.923,127.509 303.427,128.001 C302.930,128.493 302.683,129.135 302.683,129.927 C302.683,130.711 302.930,131.347 303.427,131.835 C303.923,132.323 304.531,132.567 305.251,132.567 ZM299.935,124.515 L300.535,124.515 L300.535,125.391 L299.935,125.391 L299.935,124.515 ZM298.099,132.921 C297.987,132.893 297.861,132.839 297.721,132.759 C297.581,132.679 297.469,132.549 297.385,132.369 C297.301,132.189 297.259,131.967 297.259,131.703 L297.259,124.515 L297.763,124.515 L297.763,131.547 C297.763,132.171 297.999,132.483 298.471,132.483 C298.543,132.483 298.603,132.479 298.651,132.471 L298.651,132.939 C298.587,132.955 298.515,132.963 298.435,132.963 C298.323,132.963 298.211,132.949 298.099,132.921 ZM294.523,127.875 C294.211,128.203 293.993,128.581 293.869,129.009 C293.745,129.437 293.683,129.875 293.683,130.323 L293.683,132.915 L293.179,132.915 L293.179,126.915 L293.683,126.915 L293.683,128.055 L293.635,128.547 L293.659,128.547 C293.819,128.059 294.067,127.657 294.403,127.341 C294.739,127.025 295.131,126.867 295.579,126.867 C295.699,126.867 295.815,126.879 295.927,126.903 L295.927,127.407 C295.879,127.391 295.787,127.383 295.651,127.383 C295.211,127.383 294.835,127.547 294.523,127.875 ZM290.647,129.291 C290.647,129.051 290.639,128.845 290.623,128.673 C290.607,128.501 290.571,128.321 290.515,128.133 C290.459,127.945 290.379,127.791 290.275,127.671 C290.171,127.551 290.025,127.453 289.837,127.377 C289.649,127.301 289.427,127.263 289.171,127.263 C288.475,127.263 287.881,127.519 287.389,128.031 C286.897,128.543 286.651,129.187 286.651,129.963 L286.651,132.915 L286.147,132.915 L286.147,124.515 L286.651,124.515 L286.651,127.971 L286.603,128.463 L286.627,128.463 C286.763,128.079 287.055,127.701 287.503,127.329 C287.951,126.957 288.507,126.771 289.171,126.771 C289.907,126.771 290.421,126.969 290.713,127.365 C291.005,127.761 291.151,128.343 291.151,129.111 L291.151,132.915 L290.647,132.915 L290.647,129.291 ZM283.615,132.123 L283.663,131.583 L283.639,131.583 C283.479,131.999 283.213,132.349 282.841,132.633 C282.469,132.917 282.035,133.059 281.539,133.059 C280.995,133.059 280.519,132.909 280.111,132.609 C279.703,132.309 279.499,131.879 279.499,131.319 C279.499,131.039 279.551,130.787 279.655,130.563 C279.759,130.339 279.887,130.157 280.039,130.017 C280.191,129.877 280.389,129.755 280.633,129.651 C280.877,129.547 281.099,129.471 281.299,129.423 C281.499,129.375 281.739,129.337 282.019,129.309 C282.299,129.281 282.515,129.265 282.667,129.261 C282.819,129.257 283.003,129.255 283.219,129.255 L283.615,129.255 L283.615,129.051 C283.615,127.859 283.067,127.263 281.971,127.263 C281.331,127.263 280.759,127.455 280.255,127.839 L279.967,127.431 C280.199,127.231 280.499,127.071 280.867,126.951 C281.235,126.831 281.611,126.771 281.995,126.771 C282.691,126.771 283.219,126.963 283.579,127.347 C283.939,127.731 284.119,128.295 284.119,129.039 L284.119,132.915 L283.615,132.915 L283.615,132.123 ZM283.615,129.723 L283.231,129.723 C282.983,129.723 282.781,129.725 282.625,129.729 C282.469,129.733 282.245,129.749 281.953,129.777 C281.661,129.805 281.421,129.853 281.233,129.921 C281.045,129.989 280.849,130.077 280.645,130.185 C280.441,130.293 280.287,130.441 280.183,130.629 C280.079,130.817 280.027,131.035 280.027,131.283 C280.027,131.627 280.163,131.931 280.435,132.195 C280.707,132.459 281.083,132.591 281.563,132.591 C282.179,132.591 282.675,132.329 283.051,131.805 C283.427,131.281 283.615,130.695 283.615,130.047 L283.615,129.723 ZM282.547,124.515 L283.099,124.515 L283.099,125.391 L282.547,125.391 L282.547,124.515 ZM280.903,124.515 L281.455,124.515 L281.455,125.391 L280.903,125.391 L280.903,124.515 ZM277.411,124.515 L278.011,124.515 L278.011,125.391 L277.411,125.391 L277.411,124.515 ZM277.459,126.915 L277.963,126.915 L277.963,133.155 C277.963,133.619 277.895,134.011 277.759,134.331 C277.623,134.651 277.445,134.881 277.225,135.021 C277.005,135.161 276.803,135.255 276.619,135.303 C276.435,135.351 276.247,135.375 276.055,135.375 C275.999,135.375 275.899,135.367 275.755,135.351 L275.755,134.883 C275.803,134.899 275.891,134.907 276.019,134.907 C276.171,134.907 276.317,134.887 276.457,134.847 C276.597,134.807 276.749,134.733 276.913,134.625 C277.077,134.517 277.209,134.337 277.309,134.085 C277.409,133.833 277.459,133.527 277.459,133.167 L277.459,126.915 ZM275.575,132.921 C275.463,132.893 275.337,132.839 275.197,132.759 C275.057,132.679 274.945,132.549 274.861,132.369 C274.777,132.189 274.735,131.967 274.735,131.703 L274.735,124.515 L275.239,124.515 L275.239,131.547 C275.239,132.171 275.475,132.483 275.947,132.483 C276.019,132.483 276.079,132.479 276.127,132.471 L276.127,132.939 C276.063,132.955 275.991,132.963 275.911,132.963 C275.799,132.963 275.687,132.949 275.575,132.921 ZM268.255,129.831 C268.255,130.671 268.501,131.337 268.993,131.829 C269.485,132.321 270.095,132.567 270.823,132.567 C271.559,132.567 272.179,132.315 272.683,131.811 L272.959,132.231 C272.695,132.479 272.369,132.679 271.981,132.831 C271.593,132.983 271.207,133.059 270.823,133.059 C269.951,133.059 269.217,132.769 268.621,132.189 C268.025,131.609 267.727,130.855 267.727,129.927 C267.727,128.951 268.011,128.181 268.579,127.617 C269.147,127.053 269.835,126.771 270.643,126.771 C271.419,126.771 272.021,127.033 272.449,127.557 C272.877,128.081 273.091,128.731 273.091,129.507 C273.091,129.579 273.083,129.687 273.067,129.831 L268.255,129.831 ZM271.975,127.779 C271.615,127.419 271.167,127.239 270.631,127.239 C270.047,127.239 269.537,127.425 269.101,127.797 C268.665,128.169 268.395,128.691 268.291,129.363 L272.563,129.363 C272.531,128.667 272.335,128.139 271.975,127.779 ZM266.215,132.927 C266.071,132.903 265.907,132.845 265.723,132.753 C265.539,132.661 265.379,132.539 265.243,132.387 C265.107,132.235 264.991,132.017 264.895,131.733 C264.799,131.449 264.751,131.119 264.751,130.743 L264.751,127.407 L263.959,127.407 L263.959,126.951 L264.751,126.951 L264.751,125.247 L265.255,125.247 L265.255,126.951 L266.827,126.951 L266.827,127.407 L265.255,127.407 L265.255,130.707 C265.255,131.075 265.305,131.387 265.405,131.643 C265.505,131.899 265.635,132.085 265.795,132.201 C265.955,132.317 266.105,132.395 266.245,132.435 C266.385,132.475 266.531,132.495 266.683,132.495 C266.803,132.495 266.895,132.487 266.959,132.471 L266.959,132.939 C266.895,132.955 266.795,132.963 266.659,132.963 C266.507,132.963 266.359,132.951 266.215,132.927 ZM261.835,127.875 C261.523,128.203 261.305,128.581 261.181,129.009 C261.057,129.437 260.995,129.875 260.995,130.323 L260.995,132.915 L260.491,132.915 L260.491,126.915 L260.995,126.915 L260.995,128.055 L260.947,128.547 L260.971,128.547 C261.131,128.059 261.379,127.657 261.715,127.341 C262.051,127.025 262.443,126.867 262.891,126.867 C263.011,126.867 263.127,126.879 263.239,126.903 L263.239,127.407 C263.191,127.391 263.099,127.383 262.963,127.383 C262.523,127.383 262.147,127.547 261.835,127.875 ZM254.012,129.831 C254.012,130.671 254.258,131.337 254.750,131.829 C255.242,132.321 255.851,132.567 256.580,132.567 C257.315,132.567 257.936,132.315 258.440,131.811 L258.716,132.231 C258.452,132.479 258.125,132.679 257.738,132.831 C257.349,132.983 256.964,133.059 256.580,133.059 C255.707,133.059 254.973,132.769 254.378,132.189 C253.781,131.609 253.484,130.855 253.484,129.927 C253.484,128.951 253.767,128.181 254.336,127.617 C254.903,127.053 255.591,126.771 256.400,126.771 C257.175,126.771 257.777,127.033 258.206,127.557 C258.633,128.081 258.848,128.731 258.848,129.507 C258.848,129.579 258.839,129.687 258.824,129.831 L254.012,129.831 ZM257.732,127.779 C257.372,127.419 256.923,127.239 256.388,127.239 C255.803,127.239 255.293,127.425 254.858,127.797 C254.421,128.169 254.151,128.691 254.048,129.363 L258.320,129.363 C258.287,128.667 258.092,128.139 257.732,127.779 ZM251.264,124.515 L251.864,124.515 L251.864,125.391 L251.264,125.391 L251.264,124.515 ZM246.260,132.915 L243.116,124.515 L243.668,124.515 L246.200,131.307 L246.524,132.315 L246.548,132.315 C246.668,131.907 246.776,131.571 246.872,131.307 L249.416,124.515 L249.968,124.515 L246.824,132.915 L246.260,132.915 ZM251.816,132.915 L251.312,132.915 L251.312,126.915 L251.816,126.915 L251.816,132.915 ZM300.487,132.915 L299.983,132.915 L299.983,126.915 L300.487,126.915 L300.487,132.915 Z"/>
    <text kerning="auto" font-family="Myriad Pro" fill="rgb(28, 30, 38)" transform="matrix( 0.75, 0, 0, 0.75,21.64375, 313.63625)" font-size="14px">H&#228;userpreisindex&#32;&#40;Destatis&#41;</text>
    <path fill-rule="evenodd"  fill="rgb(207, 81, 178)"
          d="M9.750,307.250 C11.821,307.250 13.500,308.929 13.500,311.000 C13.500,313.071 11.821,314.750 9.750,314.750 C7.679,314.750 6.000,313.071 6.000,311.000 C6.000,308.929 7.679,307.250 9.750,307.250 Z"/>
    <text kerning="auto" font-family="Myriad Pro" fill="rgb(28, 30, 38)" transform="matrix( 0.75, 0, 0, 0.75,22.096625, 335.625)" font-size="14px">Preisindex&#32;f&#252;r&#32;selbst&#32;genutztes&#32;Wohneigentum&#32;&#40;vdp&#41;</text>
    <path fill-rule="evenodd"  fill="rgb(234, 108, 18)"
          d="M9.750,329.750 C11.821,329.750 13.500,331.429 13.500,333.500 C13.500,335.571 11.821,337.250 9.750,337.250 C7.679,337.250 6.000,335.571 6.000,333.500 C6.000,331.429 7.679,329.750 9.750,329.750 Z"/>
    <text kerning="auto" font-family="Myriad Pro" fill="rgb(28, 30, 38)" transform="matrix( 0.75, 0, 0, 0.75,317.4545, 312.63625)" font-size="14px">Hypoport&#32;AG&#32;&#40;Gesamtindex&#41;</text>
    <path fill-rule="evenodd"  fill="rgb(255, 255, 0)"
          d="M305.250,306.500 C307.321,306.500 309.000,308.179 309.000,310.250 C309.000,312.321 307.321,314.000 305.250,314.000 C303.179,314.000 301.500,312.321 301.500,310.250 C301.500,308.179 303.179,306.500 305.250,306.500 Z"/>
    <text kerning="auto" font-family="Myriad Pro" fill="rgb(28, 30, 38)" transform="matrix( 0.75, 0, 0, 0.75,318.877125, 335.75)" font-size="14px">Deutsche&#32;Bundesbank</text>
    <path fill-rule="evenodd"  fill="rgb(244, 154, 193)"
          d="M305.250,329.000 C307.321,329.000 309.000,330.679 309.000,332.750 C309.000,334.821 307.321,336.500 305.250,336.500 C303.179,336.500 301.500,334.821 301.500,332.750 C301.500,330.679 303.179,329.000 305.250,329.000 Z"/>
    <path fill-rule="evenodd"  fill="rgb(175, 175, 175)"
          d="M28.500,254.750 L28.500,253.250 L501.750,253.250 L501.750,254.750 L28.500,254.750 Z"/>
    <path fill-rule="evenodd"  fill="rgb(175, 175, 175)"
          d="M28.500,20.750 L30.000,20.750 L30.000,254.750 L28.500,254.750 L28.500,20.750 Z"/>
</svg>